<?xml version="1.0" encoding="utf-8"?>
<!-- Generator: Adobe Illustrator 23.0.0, SVG Export Plug-In . SVG Version: 6.00 Build 0)  -->
<svg version="1.1"
	 id="svg2985" xmlns:cc="http://creativecommons.org/ns#" xmlns:dc="http://purl.org/dc/elements/1.1/" xmlns:inkscape="http://www.inkscape.org/namespaces/inkscape" xmlns:rdf="http://www.w3.org/1999/02/22-rdf-syntax-ns#" xmlns:sodipodi="http://sodipodi.sourceforge.net/DTD/sodipodi-0.dtd" xmlns:svg="http://www.w3.org/2000/svg"
	 xmlns="http://www.w3.org/2000/svg" xmlns:xlink="http://www.w3.org/1999/xlink" x="0px" y="0px" viewBox="0 0 195 195"
	 style="enable-background:new 0 0 195 195;" xml:space="preserve">
<style type="text/css">
	.st0{fill:#6FBAD1;}
	.st1{fill:#FFFFFF;}
	.st2{opacity:0.32;fill:none;stroke:#FFFFFF;stroke-width:0.25;stroke-miterlimit:10;enable-background:new    ;}
</style>
<sodipodi:namedview  bordercolor="#666666" borderopacity="1" gridtolerance="10" guidetolerance="10" id="namedview2987" inkscape:current-layer="svg2985" inkscape:cx="97.5" inkscape:cy="97.5" inkscape:pageopacity="0" inkscape:pageshadow="2" inkscape:window-height="706" inkscape:window-maximized="1" inkscape:window-width="1366" inkscape:window-x="-8" inkscape:window-y="-8" inkscape:zoom="2.3538462" objecttolerance="10" pagecolor="#ffffff" showgrid="false">
	</sodipodi:namedview>
<path id="path2995" inkscape:connector-curvature="0" class="st0" d="M85.6,191.9l-1.7-2.5l-2.8,2l-2.8,2l-1.9-2.6
	c-1.7-2.3-2.2-2.5-4.3-1.3c-2.1,1.1-2.6,1-4.5-1.5c-1.9-2.4-2.5-2.6-4.3-1.6c-3,1.6-3.2,1.5-4.4-1.8c-0.9-2.7-1.2-2.8-4.2-2
	c-1.7,0.5-3.3,0.9-3.4,0.9c-0.1,0-0.5-1.4-0.9-3.1c-0.6-2.9-0.9-3-4-2.5c-3,0.6-3.3,0.4-3.9-2.3c-0.5-2.5-1.1-3-3.9-3.3
	c-2.7-0.3-3.3-0.8-3.6-3.1s-0.8-2.8-3.2-2.8c-2.5,0-2.9-0.4-3.2-3.3c-0.3-2.9-0.7-3.3-3.6-3.6c-3-0.3-3.2-0.6-3-3.5
	c0.2-2.8-0.1-3.2-2.5-3.5s-2.8-0.7-2.8-3.8c0-2.8-0.5-3.6-2.6-4.4c-2.2-0.8-2.5-1.4-1.9-4s0.3-3.2-2-4.2c-2.6-1.2-2.7-2-1.1-5.9
	c0.5-1.2-0.2-2-2.4-2.9c-3-1.2-3-1.3-1.5-4.3c1.6-3.2,1.6-3.1-2.5-5.6c-1.1-0.7-1.1-1.3,0.4-3.6c1.8-2.7,1.8-2.8-0.6-4.5
	c-2.3-1.7-2.3-1.8-0.6-4.5c1.7-2.6,1.7-2.8-0.3-4.9L0,97.8l2.1-2.1c2.1-2.1,2.1-2.2,0.4-4.8c-1.7-2.6-1.7-2.7,0.4-5
	C5,83.7,5,83.4,3.5,81.3c-1.5-2.2-1.5-2.4,1-4.4c2.6-2.1,2.6-2.2,0.9-4.7c-1.7-2.6-1.7-2.6,1.4-4.2c2.7-1.4,3.1-2,2.2-3.5
	c-1.6-2.9-1.2-4,1.5-5.2c2.1-1,2.4-1.6,1.9-4.2c-0.5-2.7-0.2-3.2,2.3-4.2c2.5-0.9,2.9-1.5,2.5-4.1c-0.4-2.7-0.1-3.1,2.7-3.6
	c2.9-0.6,3.1-0.9,2.5-3.6c-0.6-2.7-0.4-3,2.7-3.8c2.6-0.7,3.4-1.4,3.6-3.5c0.3-2.2,0.8-2.7,3.2-2.7c2.5,0,2.9-0.4,3.2-3.3
	c0.3-3,0.6-3.2,3.6-3c2.9,0.2,3.3-0.1,3.9-2.9c0.6-2.9,0.9-3.1,3.9-2.6s3.3,0.3,3.9-2.4c0.6-2.7,0.9-2.9,4.1-2.3
	c1.9,0.4,3.4,0.2,3.4-0.3s0.6-1.7,1.3-2.7c1-1.4,1.8-1.6,4-0.7c2.4,0.9,2.9,0.8,3.9-1.4c1.3-2.8,2-3,5.1-1.4c1.8,1,2.4,0.8,4.2-1.5
	c2-2.5,2.2-2.5,4.4-1c2.1,1.5,2.4,1.5,4.7-0.7c2.3-2.1,2.5-2.2,4.3-0.6c2.4,2.2,3.5,2.1,5.7-0.4l1.8-2l2.2,2.1c2.1,2,2.3,2,4.8,0.4
	s2.7-1.6,4.5,0.6c1.8,2.3,1.9,2.3,4.6,0.5c2.9-1.9,2.9-1.9,5.4,2.3c0.7,1.1,1.3,1.1,3.9-0.2c3-1.6,3.1-1.5,4.3,1.4
	c0.9,2.2,1.7,2.8,2.9,2.4c4-1.6,4.8-1.5,5.9,1.1c1,2.3,1.6,2.6,4.2,2c2.7-0.6,3.1-0.3,4,2.2c0.8,2.3,1.6,2.8,4.2,2.8
	c2.6,0,3.3,0.5,3.8,2.5s1.2,2.5,3.8,2.4c2.8-0.1,3.2,0.2,3.4,3c0.3,2.7,0.7,3.2,3.6,3.5c2.8,0.3,3.3,0.7,3.3,3.2c0,2.4,0.5,3,3,3.5
	c2.5,0.6,3,1.1,3,3.6s0.5,3,3,3.5c2.8,0.6,3,0.9,2.4,3.9s-0.4,3.3,2.5,4c3.2,0.7,3.3,1,1.4,6.1c-0.2,0.6,0.9,1.7,2.6,2.3
	c2.8,1.2,2.9,1.4,1.9,4.3c-0.7,2.1-0.8,3.2-0.1,3.4c0.6,0.2,1.9,1,2.9,1.7c1.5,1.1,1.6,1.6,0.6,2.7c-1.8,1.9-1.5,3.8,0.9,5.8
	c2.1,1.7,2.1,1.9,0.5,4.4s-1.6,2.6,1,4.7l2.7,2.1l-2.2,2.2L190,93l2.2,2.3l2.2,2.3l-2.3,2.5l-2.3,2.5l2.2,2.3l2.2,2.3l-2.4,2.3
	c-2.3,2.2-2.4,2.4-0.8,4.8c1.6,2.4,1.5,2.6-0.8,4.3c-2.2,1.6-2.3,2.1-1.1,4.6c1.1,2.4,1,3-0.5,4.1c-1,0.7-2.2,1.3-2.7,1.3
	c-0.9,0-0.6,1.8,0.8,5.1c0.5,1.2-0.1,1.9-2.3,2.7c-2.8,1-2.9,1.3-2.1,4.2c0.8,2.9,0.7,3.2-2.1,4.2c-2.6,0.9-3,1.5-2.7,4.2
	c0.3,2.8,0,3.2-2.5,3.5c-2.4,0.3-2.8,0.8-2.8,3.6c0,2.9-0.4,3.4-3,3.9c-2.5,0.5-3,1.1-3,3.6c0,2.6-0.4,3-3.3,3.3
	c-2.8,0.3-3.3,0.7-3.5,3.4c-0.3,2.8-0.5,3-3.7,2.6c-3.1-0.4-3.4-0.1-3.7,2.5c-0.3,2.5-0.7,2.9-3.8,2.9c-2.7,0-3.6,0.5-3.8,2
	c-0.6,3.1-1.6,3.7-4.6,2.5c-2.5-1-2.8-0.8-3.8,2c-0.6,1.7-1.6,2.9-2.2,2.6c-3.7-1.4-5.6-1.7-5.7-1c0,0.4-0.6,1.6-1.4,2.6
	c-1.2,1.5-1.7,1.6-4.1,0.5s-2.9-1-4.5,1.2c-1.7,2.2-2,2.3-4.4,1c-2.3-1.2-2.8-1.2-4.8,0.7c-2.2,2.1-2.3,2.1-4.6,0.1
	c-2.4-2-2.4-1.9-4.7,0.2l-2.3,2.2l-2.3-2.2l-2.3-2.2l-1.8,2C88.2,195,87.6,195,85.6,191.9L85.6,191.9z M111.6,184.4
	c31.2-5.5,57.5-27.3,68.1-56.6c5.6-15.3,6.7-36.2,2.8-51.4c-2.1-8.2-8-21-13.2-28.6c-8.9-13.2-25.6-26.2-40.6-31.9
	c-20-7.5-44.4-7.4-63.6,0.2c-27.4,11-47.5,34.7-53.7,63.7c-3,14.1-1.4,35.8,3.8,49c13.3,34,45.1,56.2,80.9,56.5
	C101.3,185.4,108.3,185,111.6,184.4z M79,181c-17.8-4.1-32-12.4-44.4-25.8C-3.8,113.9,8.8,46.4,59.5,21.5c13.4-6.6,21.8-8.4,38-8.4
	c12.3,0,15.1,0.4,23,2.7c23.9,7.2,42.3,22.5,53,44.1c14.7,29.4,10.9,64.5-9.7,91.3c-9,11.7-24.4,22.3-39.7,27.4
	c-8.7,2.9-10.8,3.2-24.5,3.4C89.9,182.2,82.5,181.9,79,181z M108.1,178.4c33-4.8,59.3-28.2,68.1-60.9c3.2-11.8,2.9-29.7-0.7-41.6
	c-4-13.3-9.7-23.4-18.9-33.2c-9.4-10-19.9-17.1-31-21.1c-39.6-14.3-83,3-101.1,40.3c-6.7,13.8-8,19.6-7.9,36.5
	c0,13.1,0.3,15.3,2.8,23c3.3,10,5.4,14.4,10.8,22.4C47.2,168.8,78.4,182.7,108.1,178.4z M80,170.9c-8.2-1.8-20.7-7.9-28.7-13.8
	C39,148,28.1,131.2,24.4,115.9c-2.2-9.2-2.2-26.7-0.1-35.7c9.6-39.3,48-63.6,88.5-55.8c18.3,3.5,38.5,17.5,48.1,33.4
	c8.3,13.8,11.5,26.8,10.9,43.6c-0.8,20.1-7.1,34.4-21.7,49c-9.6,9.6-17.9,14.9-29.5,18.7C110.5,172.4,90.5,173.3,80,170.9L80,170.9z
	 M103,153.8c0-2.8,0.5-3.7,2-4.1c2.2-0.6,2.1-2.8-0.1-2.8c-0.8,0-2,1.6-2.6,3.5c-0.7,1.9-1.2,2.9-1.3,2.1c-0.1-1.6-2.9-5.1-4.2-5.1
	c-1.7,0-0.8,2.9,1.1,4c1.1,0.6,2.3,2.2,2.6,3.5C101.5,158.6,103,157.9,103,153.8L103,153.8z M67.6,147.4c1.3,0,3.6-7.1,4.9-15.5
	c0.9-5.4,2.5-11.6,3.6-13.9s1.8-3.3,1.5-2.3c-1.1,4.1-1.7,14.9-1.1,19.1c0.9,6.2,5.9,11.6,10.7,11.6c6.5,0,12.1-5.5,13.9-13.5l0.6-3
	l2.1,4.7c2.3,5.2,7,8.8,11.6,8.8c9.7,0,12.5-11.3,6.7-27.7c-3.4-9.5-3.5-10.3-1.8-8.5c2.8,2.8,2.7,0.8-0.3-4.8c-1.8-3.3-3.6-6-4-6
	s-1.3,0.9-1.9,2.1c-1.4,2.6,0.7,13,5.3,26.3c2.9,8.6,3,9,1.2,10.3c-2.1,1.5-6.6,1-10-1.2c-2.7-1.7-5.4-9.4-5.4-15.5
	c0-5.8-1.5-13.7-3.3-18.1l-1.4-3.4l-1.6,3.6c-1.4,3.2-1.4,4.3-0.2,9.5c1.9,7.9,1.9,19.7,0,23.3c-1.8,3.5-7.8,6.5-11.2,5.6
	c-1.4-0.3-3.7-1.8-5.1-3.2l-2.6-2.6l0.7-13.4c0.6-11.4,0.5-13.4-0.8-13.4c-3.4,0-7.9,10.1-9.6,21.5c-1.9,12.8-3.8,15.9-8,13.3
	c-3.6-2.2-6.1-10.1-5.8-18c0.3-7.1,0.3-7.2,3.3-7.7c1.8-0.3,3.1-1.2,3.3-2.2c0.4-1.8-4.3-6.8-6.3-6.8c-1.7,0-3,7.1-1.4,8
	c1.3,0.8-4.8,5.7-11.4,9.1c-2.1,1.1-3.6,2.2-3.3,2.5s3.5-1.1,7.2-3.1c6.4-3.5,6.6-3.6,6.1-1.4c-0.9,3.6,1,14.4,3.4,19.3
	c2.2,4.5,6.3,7.8,8.8,6.9C66.6,147.6,67.3,147.4,67.6,147.4z M59.5,112.4c-0.3-0.6-0.1-1,0.4-1c0.6,0,1.1,0.4,1.1,1s-0.2,1-0.4,1
	S59.8,113,59.5,112.4z M55.5,111.4c-0.3-0.6,0.1-1,0.9-1c0.9,0,1.6,0.4,1.6,1s-0.4,1-0.9,1S55.8,112,55.5,111.4z M140.9,140.7
	c0.6-2.6,1.3-7.2,1.7-10.3c0.5-4.5-1.6-36.2-4.1-60l-0.6-5.5l2,2.5c1.1,1.4,2.2,2.3,2.5,2c0.4-0.4-3.1-12.1-6-20
	c-0.4-1.1-1.1-0.5-2.3,2c-1.5,3-1.6,4.7-0.9,11.5c1.4,14,3.8,49.4,4.5,66.7c0.4,9.2,1,16.5,1.4,16.3S140.3,143.3,140.9,140.7z
	 M51,101.8c1.4-0.9,3.7-2.8,5.2-4.2S59,95.5,59,96s0.8,1.9,1.7,3.1l1.7,2.1l5.7-3.4c3.2-1.9,6.3-3.4,6.9-3.4s1-0.8,0.9-1.8
	c-0.2-1,0-2.2,0.4-2.8c0.8-1.3-11.4-4-13.7-3.1c-0.8,0.3-1.9,1.6-2.4,2.9c-0.7,1.8-0.9,1.1-1-3.3C59,79.1,57.9,71.4,57,71.4
	c-0.4,0-0.7,4.5-0.6,10.1l0.1,10.1L52.6,95c-4,3.5-3.9,4.3,0.3,2c1.3-0.7,3-2.4,3.7-3.7c1-1.9,1.3-2,1.4-0.6c0,1-1.8,3.1-4.1,4.8
	c-6.2,4.5-11.8,3.7-11.8-1.6c0-2.7,3.6-3.9,4.9-1.7c0.6,1.1,1.6,1.4,3.5,0.9c2.3-0.6,2.6-1.2,2.6-4.8c0-3.9,0.1-4,1.5-2.2
	c0.9,1.3,1.5,1.5,1.5,0.6c0-0.7-0.9-2.5-2-3.9c-1.5-1.8-2-3.8-1.8-6.9c0.1-2.5-0.3-4.9-1.1-5.6c-1-1-1.2-0.3-0.9,3.5
	c0.4,5.4-0.9,5.8-2.9,0.9c-1.2-2.8-1.1-3.4,0.6-4.8c1.1-0.9,1.7-2.4,1.4-3.5C48.6,65.6,47,66,47,68.8c0,2.3-2.2,5.1-3.2,4.1
	c-0.3-0.3-0.8,0.4-1.1,1.5s-0.2,1.9,0.1,1.8s2.3,1.6,4.3,3.8c4.3,4.8,6.2,12.1,3.3,13.1c-2.2,0.8-3.6-1.4-3.2-4.9
	c0.2-1.5-0.2-3.3-1-3.9c-1-0.9-1.3-0.7-1.3,0.9c0,1.1-0.9,2.8-2,3.8c-1.4,1.3-2,3.1-2,6.3C41,102.6,45.4,105.5,51,101.8L51,101.8z
	 M63,97c0-0.5,6.7-3.6,7.8-3.6c0.3,0-0.3,0.6-1.4,1.4C67.2,96.4,63,97.8,63,97z M62,93c0-0.9,4-1.4,4.6-0.5c0.3,0.5-0.6,0.9-2,0.9
	C63.2,93.4,62,93.3,62,93z M43.2,90.4c0.2-0.7,1-1.5,1.8-1.8s1.1,0.1,0.9,0.9c-0.2,0.7-1,1.5-1.8,1.8C43.3,91.5,42.9,91.1,43.2,90.4
	z M62,89c0.5-0.5,2.6-0.5,5.2,0.1l4.3,1L66.3,90C63.2,90,61.5,89.6,62,89z M153.7,101.3c5-2.4,5.5-3.4,1.6-3.4c-1.5,0-2.8-0.4-2.8-1
	s0.5-0.9,1.3-0.7c1.4,0.3,1.8-2.4,0.4-3.2c-1.5-0.9-5.5,4.1-4.8,6c0.4,0.9,0.1,2.3-0.5,3.1C147.3,104,148.7,103.8,153.7,101.3z
	 M58.6,99.7c-1-1-1.9,0.5-1,1.9c0.6,1,0.9,1,1.2,0C59,100.9,58.9,100,58.6,99.7L58.6,99.7z M71,100.4c0-0.5-0.7-0.9-1.5-0.9
	c-1.5,0-2,1.2-0.9,2.3C69.4,102.5,71,101.6,71,100.4z M99,90.2c0-0.6,0.6-0.5,1.5,0.2c0.8,0.7,1.9,0.9,2.5,0.6
	c1.3-0.8,1.3-5.5,0.1-7.5c-1.5-2.4-2.5-0.3-1.2,2.6c0.9,2.1,0.9,2.5-0.1,2.2c-0.7-0.2-1.4-1.5-1.6-2.8C99.6,81,98,81,98,85.5
	c0,4.9-2.1,5.3-3.1,0.5c-0.6-2.9-0.6-2.8-0.8,0.6c-0.1,2,0.4,4.1,1,4.7C96.4,92.4,99,91.8,99,90.2z M45,80.8c0-0.7-0.7-1.3-1.6-1.3
	c-1,0-1.4,0.6-1.1,1.4c0.3,0.8-0.2,2.4-1.1,3.8l-1.6,2.4l2.7-2.4C43.8,83.2,45,81.5,45,80.8z M72.7,85.8c-0.4-0.4-0.2-1.2,0.4-1.9
	c0.8-1,0.6-1.2-1-1.1C71,82.9,70,83,70,83.2c0,1.2,1.4,3.4,2.3,3.4C72.9,86.4,73,86.1,72.7,85.8z M121.8,84.6
	c0.2-0.7-0.3-1.2-1.2-1.2c-1.9,0-1.9-0.2-0.1-4.7c0.8-2,1.3-3.8,1-4.1c-0.7-0.7-3.5,6.3-3.5,8.6C118,86.4,120.8,87.5,121.8,84.6z
	 M67.5,81.9c2.8-1.3,4.5-2.4,3.9-2.4C70.1,79.4,61,83.3,61,84C61,84.8,62.4,84.3,67.5,81.9z M66.5,77.9c3.2-1.4,5.5-2.8,5.2-3.1
	c-0.3-0.3-3.2,0.8-6.4,2.5C58.2,81,58.8,81.3,66.5,77.9z M86,77.4c2.1-1.1,11.2-4.7,20.2-8.1c21.4-8,19.6-7.2,17.8-7.7
	c-3.1-0.8-42,14.2-42.7,16.4C80.7,79.9,81.4,79.8,86,77.4z M64,74.5c1.2-0.8,1.3-1.2,0.2-2.2c-1-1-1.5-1-2.2,0.2
	C60.1,75.3,61.1,76.3,64,74.5z M58.1,69.4c2.2-1.1,3.8-2.3,3.6-2.6C61.2,66.3,53,70.2,53,71S54,71.5,58.1,69.4z M107.2,55
	c18.8-6.3,23.8-8.5,16.3-7.1C111.4,50,73,64.7,73,67.1c0,0.7,3-0.1,7.7-2.3C85,62.9,96.9,58.4,107.2,55z M71.5,54.3
	c0.5-1.5,0-2.8-1.4-4.2l-2-2l-1.2,2.6c-0.7,1.4-0.9,3.3-0.6,4.2C67.2,57.2,70.8,56.8,71.5,54.3z M67.5,53.4c-0.3-0.5,0.1-1,0.9-1
	c0.9,0,1.6,0.5,1.6,1s-0.4,1-0.9,1S67.8,54,67.5,53.4z M95.6,48.8c-0.3-0.9-0.6-2-0.6-2.4c0-1.2-5-7-6.1-7c-1.7,0-0.9,1.8,2.1,4.8
	c1.7,1.7,3,3.7,3,4.6s0.5,1.6,1.1,1.6C95.7,50.4,95.9,49.7,95.6,48.8z"/>
<circle class="st0" cx="99" cy="96.4" r="68.8"/>
<path class="st1" d="M98.5,168c0,1.1-0.1,1.6-0.2,1.6s-0.2-0.3-0.3-1c-0.2-0.9-0.4-1.8-0.7-2.6c-0.3-0.6-0.6-1.3-1-2
	c-0.3-0.5-0.5-0.8-0.5-0.9c0-0.1,0.1-0.4,0.2-0.8c0.1-0.4,0.2-0.6,0.3-0.6c0.3,0,0.7,0.7,1.2,2C98.2,165.3,98.5,166.7,98.5,168
	L98.5,168z"/>
<g>
	<path class="st1" d="M61.4,102.4l1.4-2.8c0.1-0.2,0.2-0.3,0.3-0.3c0.2,0,1,0.5,2.3,1.4c1.4,0.9,2.1,1.5,2.1,1.6
		c0,0.6-0.6,1.8-1.8,3.8c-0.1,0.2-0.3,0.3-0.5,0.2c-1.2-0.9-2.5-1.8-4-2.7c-0.5,1.1-1,2.1-1.5,2.9c-0.1,0.2-0.3,0.3-0.4,0.2
		c-1.3-1-2.7-2-4.2-2.9c-0.1,0-0.1-0.1,0-0.3l1.8-3.5c0.1-0.2,0.2-0.3,0.3-0.3s0.8,0.4,1.9,1.1C60.3,101.4,61.1,102,61.4,102.4
		L61.4,102.4z"/>
	<path class="st1" d="M75.5,129.6c-1.8,0-3.1-0.1-3.9-0.3c-1.7-0.5-3.2-1.6-4.4-3.4c-0.7-1.2-1.4-2.4-2.1-3.6
		c-0.6-1-1.2-1.5-1.9-1.5c-2,0-4.1,1.7-6.4,5.1c-0.4,0.6-1.1,2.2-2.1,4.7s-1.9,4.4-2.7,5.6c-1.2,1.7-2.4,2.6-3.7,2.6
		c-2,0-3.6-1.6-5-4.6c-1.2-2.7-1.8-5.5-1.8-8.4c0-3.6,0.3-6.4,1-8.5c0.3-0.7,0.5-1.1,0.6-1.1c0.2,0,0.3,0.5,0.2,1.4
		c-0.3,2.2-0.4,4.1-0.4,5.7c0,7.5,1.7,11.2,5.2,11.2c1.4,0,2.7-1.1,3.9-3.3c1.2-2.6,2.4-5.2,3.6-7.8c1.1-2.2,2.4-4,3.9-5.5
		c1.6-1.6,3.1-2.4,4.4-2.4c1,0,1.9,0.6,2.7,1.9c0.7,1.1,1.4,2.2,2,3.3c1,1.4,2,2.3,3,2.8s2.3,0.8,4,0.8L75.5,129.6L75.5,129.6z"/>
	<path class="st1" d="M67.6,92.7c5-1.8,10.3-3.7,15.9-5.8c0.3-0.1,0.5-0.1,0.5-0.1c0.1,0.1,0,0.2,0,0.5c-0.3,0.8-0.6,1.2-0.8,1.4
		c-4.7,1.7-10.2,3.8-16.5,6.4C66.8,94.4,67.2,93.6,67.6,92.7L67.6,92.7z"/>
	<path class="st1" d="M108.4,116.2l-1.9,3.8c-0.2,0.4-0.4,0.6-0.7,0.6c-6,0-11.2,0.9-15.6,2.7c-1,0.4-3.8,1.8-8.4,4.2
		c-3,1.5-5.2,2.3-6.5,2.3v-5.4c2.7,0,7.1-1.7,13.4-5.2c-5.6-0.9-11.1-1.6-16.6-2c-1.1-0.1-1.6-0.2-1.6-0.4c0,0,0-0.1,0-0.2
		c0.5-0.9,1.1-2.2,1.9-3.7h9.2c1.2,0.2,4.4,0.7,9.5,1.4c6.6,0.8,11.8,1.2,15.8,1.2c1,0,1.5,0.1,1.5,0.3
		C108.5,115.8,108.5,116,108.4,116.2L108.4,116.2z"/>
	<path class="st1" d="M89.7,134.9c5-1.8,10.3-3.7,15.9-5.8c0.3-0.1,0.5-0.1,0.5-0.1c0.1,0.1,0,0.2,0,0.5c-0.3,0.8-0.6,1.2-0.8,1.4
		c-4.7,1.7-10.2,3.8-16.5,6.4C89,136.6,89.3,135.8,89.7,134.9L89.7,134.9z"/>
	<path class="st1" d="M95.3,81.7l1.4-2.8c0.1-0.2,0.2-0.3,0.3-0.3c0.2,0,1,0.5,2.3,1.4c1.4,0.9,2.1,1.5,2.1,1.6
		c0,0.6-0.6,1.8-1.8,3.8c-0.1,0.2-0.3,0.3-0.5,0.2c-1.2-0.9-2.5-1.8-4-2.7c-0.5,1.1-1,2.1-1.5,2.9c-0.1,0.2-0.3,0.3-0.4,0.2
		c-1.3-1-2.7-2-4.2-2.9c-0.1,0-0.1-0.1,0-0.3l1.8-3.5c0.1-0.2,0.2-0.3,0.3-0.3c0.1,0,0.8,0.4,1.9,1.1C94.3,80.8,95,81.4,95.3,81.7
		L95.3,81.7z"/>
	<path class="st1" d="M98.9,97.4c0,1.3-0.1,2.7-0.4,4.1c-0.2,1-0.5,1.5-0.7,1.5c-0.3,0-0.5-0.6-0.5-1.7c0-1.4-0.3-2.6-0.9-3.6
		c-0.5-0.9-1.1-1.4-1.7-1.4c-0.9,0-2.2,1.6-3.9,4.6c-2.2,4.1-4,6.9-5.3,8.3c-1.7,1.8-3.5,3.4-5.5,4.8l-7.3-1.3
		c0.3-0.4,1-0.9,2.3-1.5c1.8-0.9,3.3-1.7,4.4-2.4c2.1-1.4,4.3-3.1,6.3-5.2c1.2-1.2,3.1-3.9,5.7-8c2-3.2,3.5-4.8,4.4-4.8
		c0.7,0,1.3,0.5,2,1.5C98.6,93.6,98.9,95.3,98.9,97.4L98.9,97.4z"/>
	<path class="st1" d="M108.7,118.7c0.4,2.5,1.3,4.2,2.5,5c0.6,0.4,1.6,0.6,2.9,0.6v5.4c-1.9,0-3.5-0.4-4.5-1.2
		c-1.5-1.1-2.5-3.2-3.1-6.3c-0.3-1.9-0.6-7.5-0.9-16.8c-0.3-10.1-0.6-16.3-0.8-18.6c-0.4-3.7-1.1-7.2-2.1-10.5
		c0-0.9,0.4-2.2,1.1-3.9c0.1-0.4,0.3-0.7,0.4-0.7s0.3,0.2,0.4,0.5c1.1,2.3,2,6,2.6,11.4c0.4,3.3,0.7,9.9,0.9,19.8
		C108.4,112.7,108.6,117.8,108.7,118.7L108.7,118.7z"/>
	<path class="st1" d="M120.1,102c-0.1-0.1-0.1-0.2,0-0.3l1.8-3.5c0.1-0.2,0.2-0.3,0.3-0.3c0.2,0,0.9,0.5,2.3,1.4s2,1.5,2,1.7
		c0,0.6-0.6,1.8-1.8,3.7c-0.1,0.2-0.3,0.3-0.4,0.2C123,103.8,121.6,102.9,120.1,102L120.1,102z"/>
	<path class="st1" d="M130.6,128.7c-4.5,0-7.9-0.6-10-1.9c-2.5,1.9-4.8,2.8-6.8,2.8v-5.4c1.4,0,2.6-0.3,3.8-0.8
		c-0.5-1-0.8-2.4-0.8-4.2c0-2.5,0.9-5,2.8-7.6c1.7-2.3,3.2-3.5,4.4-3.5c1.1,0,2,0.9,2.7,2.5c0.5,1.3,0.7,2.7,0.7,4.1
		c0,3.5-0.8,6.2-2.3,8c1,0.3,2.8,0.5,5.4,0.5v5.5H130.6z M125.4,118.4c0-0.8-0.3-1.8-0.8-3c-0.6-1.4-1.1-2.1-1.5-2.1
		c-0.6,0-1.4,0.6-2.6,1.8c-1.1,1.2-1.9,2.3-2.3,3.3c0.1,0.5,0.6,1.1,1.2,1.8c0.7,0.7,1.3,1.1,2,1.4
		C123.4,120.5,124.7,119.5,125.4,118.4L125.4,118.4z"/>
	<path class="st1" d="M136.7,64.7c0,0.4-0.5,1.3-1.4,2.6c-1.1,1.5-2.2,2.7-3.2,3.4c-0.6,0.4-2.7,1.1-6.2,2.1c-0.7,0.1-1,0.2-1,0.2
		c0.1-0.1,0.3-0.2,0.7-0.6c0.4-0.4,1.7-1.1,3.8-2.1c2-1.1,3.1-1.8,3.4-2c0.1-0.1,0.1-0.1,0.1-0.2c0-0.4-1.8-0.7-5.3-0.7
		c0,0-0.7,0-2,0c-0.7,0-1,0-1-0.1s0.1-0.3,0.3-0.6l1.3-2.1c0.4-0.6,1-1,2-1.2c0.3-0.1,1.1-0.1,2.4-0.1
		C134.7,63.3,136.7,63.8,136.7,64.7L136.7,64.7z"/>
	<path class="st1" d="M139,112.7c0,5.2-0.9,9.3-2.8,12.3c-1.6,2.5-3.4,3.8-5.6,3.8v-5.4c1.7,0,3.4-0.7,5-2c0.5-0.4,0.7-1.8,0.7-4.3
		c0-1.5-0.4-7.6-1.1-18.2C134.4,88.2,134,82,134,80.2c0-1.7-0.3-3.1-0.8-4.3c0-0.7,0.5-2.2,1.5-4.5c0.1-0.2,0.2-0.4,0.3-0.4
		s0.2,0.1,0.4,0.4c0.3,0.6,1,2.3,2,5.1c1.1,2.9,1.8,4.6,1.9,5.3c0.1,0.5,0.2,0.9,0.2,1.1c0,0.8-0.8,0.4-2.3-1.4
		c-0.2-0.3-0.3-0.2-0.3,0.3c0,0.1,0.3,4.8,1,14.2C138.6,105.3,139,110.9,139,112.7L139,112.7z"/>
	<path class="st1" d="M140.5,61.5c5-1.8,10.3-3.7,15.9-5.8c0.3-0.1,0.5-0.1,0.5-0.1c0.1,0.1,0,0.2,0,0.5c-0.3,0.8-0.6,1.2-0.8,1.4
		c-4.7,1.7-10.2,3.8-16.5,6.4C139.8,63.2,140.1,62.4,140.5,61.5L140.5,61.5z"/>
	<path class="st1" d="M150.2,66c-0.2,0.8-0.4,1.2-0.7,1.4c-1,0.6-3.1,2.1-6.4,4.3c-0.1,0.1-0.3,0.2-0.5,0.4c0,0-0.1-0.1-0.1-0.2
		l0.2-1.2c0-0.2,0.6-0.8,1.7-1.6c-1.3-0.5-2-1-2-1.8s0.4-1.6,1-2.4c1.3-1.6,2.4-2.4,3.3-2.4c0.8,0,1.2,0.4,1.2,1.3
		c0,0.5-0.2,1.1-0.7,1.8c-0.1,0.1-0.2,0.1-0.3,0c-0.2-0.6-0.6-0.8-1-0.8c-0.3,0-0.7,0.1-1.1,0.5c-0.4,0.3-0.7,0.6-0.7,0.8
		c0,0.3,0.3,0.6,0.8,0.9c0.6,0.3,1,0.4,1.3,0.4s0.8-0.2,1.6-0.7c0.5-0.3,1-0.7,1.5-1c0.4-0.2,0.7-0.3,0.8-0.3
		C150.3,65.5,150.3,65.7,150.2,66L150.2,66z"/>
	<path class="st1" d="M144.1,81.1c0-1.7-0.3-3.1-0.8-4.2c0-0.6,0.5-2.1,1.5-4.5c0.1-0.3,0.3-0.4,0.3-0.4c0.1,0,0.2,0.1,0.4,0.4
		c0.3,0.6,1,2.3,2,5.1c1.1,2.9,1.8,4.6,1.9,5.3c0.1,0.5,0.2,0.9,0.2,1.2c0,0.8-0.8,0.3-2.3-1.4c-0.2-0.3-0.3-0.1-0.3,0.3
		c0,0.1,0.4,5.7,1.2,16.6s1.2,17,1.2,18.3c0,4.2-0.6,7.9-1.9,11c-0.3,0.6-0.5,1.1-0.7,1.4l0,0c-0.3,0.5-0.4,0.5-0.4,0.2
		c-0.1-0.3,0-1,0-2c0.2-1.4,0.3-3.1,0.3-5c0-1.7-0.5-8.8-1.3-21.3C144.6,89.6,144.1,82.6,144.1,81.1L144.1,81.1z"/>
</g>
<path class="st2" d="M86.7,28.4c5.6,0.2,10.2-0.2,15.1,0.6l5.2-0.6c2.5,0.6,2.2,3.3,5.4,3.7c1.6-0.8,2.2-1.9,4.3-2.1
	c1.3,1.8,2.4,1.2,4.6,1.7c0.6,1.7,1.2,3.2,2.3,4.4c2,0.2,3.3-0.1,5-0.6c1.9,0.9,2.6,2.5,4.1,3.5l3.1,1.2c0.7,0.5,0.7,1.6,1.2,2.1
	l1.9,0.2l7,5.4l0.2,0.2c0.9,1.5,0.5,3.9,1.2,5.4c1.5,0.4,3.3,0.4,5,0.8c0.9,2.2,1.6,2.6,2.9,4.1c-0.2,2.5-1.5,4.2,0.2,5.6
	c0.9,1.5,3.3,1.1,4.1,2.5c1.2,2,1.7,8,2.5,10.2l1,0.6c0.3,1.6,0.6,3.2,0.8,4.8l1.9,3.3c0.8,2.9-1.8,3.4-1.9,6.4
	c0.8,1.5,2.2,2.2,3.3,3.3c-0.1,1.4-0.8,1.7-1,2.5c-0.3,0.9,1.3,1.7,0.8,2.9c-0.6,1.3-2.2,2.1-3.1,3.1c0.1,3,2.6,3.8,1.9,6.6
	c-0.7,2.3-2.7,6.5-3.7,8.7l0.2,2.3l-1.9,3.1c-0.3,1.6-0.6,3.2-0.8,4.8c-0.7,1.1-4,2.3-5,3.1c0,2,1.1,4,0,5.8c-2,0.7-1.2,2.3-2.7,3.3
	c-1.2,0.6-3.3,0.4-4.6,0.8c-0.7,1.4-0.3,3.9-1.2,5.4l-0.2,0.2l-7,5.4l-1.9,0.2c-0.6,0.5-0.6,1.6-1.2,2.1l-3.1,1.2
	c-1.5,1.1-2.3,2.6-4.1,3.5c-1.9-0.6-3.4-0.9-5.4-0.4c-0.7,1.1-1.2,3.5-2.3,4.1c-1.9,1-1.9-0.2-4.3,1.7c-2.3-0.3-2.5-1.8-5-2.1
	c-1.8,0.9-2.7,3.3-4.6,3.7l-3.5-0.6l-3.7,0.6c-2.9,0.5-5.4-0.5-8.5-0.6l-4.6,0.6c-2.5-0.6-2.2-3.3-5.4-3.7l-3.5,2.1
	c-1.5-0.3-1.3-1.3-2.3-1.7c-0.9-0.3-2.2,0.2-3.1,0c-0.6-1.7-1.2-3.2-2.3-4.4c-2-0.2-3.3,0.1-5,0.6c-1.9-0.9-2.6-2.5-4.1-3.5
	l-3.1-1.2c-0.7-0.5-0.7-1.6-1.2-2.1l-1.9-0.2l-7-5.4l-0.2-0.2c-0.9-1.5-0.5-3.9-1.2-5.4c-1.5-0.4-3.3-0.4-5-0.8
	c-0.9-2.2-1.6-2.6-2.9-4.1c0.3-1.3,0.6-2.6,0.8-3.9c-1.4-3.3-3.9-2.1-5.2-4.1c-1.2-2-1.7-8-2.5-10.2l-1-0.6l-0.8-4.8l-1.9-3.3
	c-0.8-2.9,1.8-3.4,1.9-6.4c-0.8-1.5-2.2-2.2-3.3-3.3l1-2.9c-0.1-0.7-0.9-1.2-1-2.5c1-1,2.6-1.7,3.1-3.1c1.1-3.2-2.5-3.4-1.7-6.6
	c0.6-2.3,2.8-6.5,3.7-8.7l-0.2-2.3l1.9-3.1l0.8-4.8c0.7-1.1,4-2.3,5-3.1c0-2-1.1-4,0-5.8c2-0.7,1.2-2.3,2.7-3.3
	c1.3-0.7,3.4,0.2,4.6-0.8c1.6-1.3,0.2-3.7,1.2-5.4l0.2-0.2l7-5.4l1.9-0.2c0.6-0.5,0.6-1.6,1.2-2.1L61,39c1.5-1.1,2.3-2.6,4.1-3.5
	c1.5,0.5,3.8,1.3,5.2,0.2c1.5-0.9,1.1-3,2.5-3.9c1.9-1,1.9,0.2,4.3-1.7c2.3,0.3,2.5,1.8,5,2.1C84.1,31.2,85,29.7,86.7,28.4z
	 M86.7,30.5c-1.9,3.8-5.6,4.2-8.9,1.7l-0.4,0.4c1.6,0.5,1.8,1.5,1.2,3.1c3.5,0,16.3,1.4,17,0.8c-1.1-2.6-1.7-3.8-0.2-6
	C92.3,30.5,89.8,30.6,86.7,30.5L86.7,30.5z M98.3,30.5c0.4,0.7,0.8,1.4,1.2,2.1c-0.5,1.4-1.4,3-1.2,4.4h0.2
	c2.5-1.4,12.3-1.3,16.6-1.2c-0.6-1.7-0.3-2.6,1.2-3.1l-0.4-0.4c-3.4,2.7-6.8,2-8.9-1.7C103.9,30.6,101.4,30.5,98.3,30.5L98.3,30.5z
	 M96.7,31.9l-0.4,0.8l0.6,1c0.5-0.6,0.5-0.8,0.4-1.7L96.7,31.9z M73.7,33.4C73,38.7,69.4,38,65,37.5c-1.7,2.2-3.9,3.3-6.4,4.8
	l0.2,0.4c2.8,0.6,2.1,3,3.3,5l0.6-0.4c1.8-3.7,9.2-7.1,12.2-10.4c-1-1.3-1.4-1.8-0.6-3.5H73.7L73.7,33.4z M119.4,33.4l0.6,1.9
	c-0.4,0.6-0.8,1.1-1.2,1.7c3.7,3.9,8.7,7.3,12.8,10.8h0.2c0.4-2.5,2.9-5.5,2.9-5.8c-2.9-0.9-4.2-2.7-6.2-4.4
	c-3.1,0.4-6.3,1.4-7.9-1.7C120.1,34.7,120.5,34,119.4,33.4z M75.9,34.2c0.1,1-0.4,0.7,0.8,1L77,35v-0.8H75.9z M116.7,34.2l0.2,1h0.8
	l0.2-0.6l-0.2-0.4H116.7L116.7,34.2z M77.2,37.5l-6,5c3.8,0,6.4,2.1,8.7,1.9c0.8-2.7,3-5.2,5.4-6.2V38L77.2,37.5z M114.9,37.5
	l-6.4,0.4v0.2h0.4l3.3,2.9l2.1,3.5c2.5-1.2,4.5-2.1,8.3-2.1l-0.4-0.6l-5.6-4.4L114.9,37.5L114.9,37.5z M90.4,37.9
	c-2.9,1.3-10.3,4.2-8.7,8.1l3.7,2.3v-0.4c3-3,5-7.3,9.3-8.9C93.9,38.2,92.1,37.9,90.4,37.9z M101.8,37.9c-1,0.4-2.2,0.4-2.9,1h0.4
	c3.1,2.8,7.2,5.1,8.9,9.3l0.6-0.2l3.5-2.7C110.4,41.5,107.5,38.1,101.8,37.9L101.8,37.9z M96.7,39.8c-3.6,3-7.7,5.2-9.7,9.7
	c4.8,2.3,9.1,6.4,16.4,2.7l3.5-2.7C104.9,45.8,100.8,41.2,96.7,39.8L96.7,39.8z M55.8,44.2c-1.9,2.2-4,3.4-6.6,5
	c0.2,7.9-2.9,4.8-6.6,7.3c2-0.3,2.3,0.5,3.1,1.9c4.3-2.8,10.4-5.8,14.1-9.1L56.1,46L55.8,44.2z M137.7,44.2l-0.2,1.9
	c-0.7,1.5-2.4,2-3.5,3.1c2.9,2.5,10.8,7.6,14.3,9.1c0.3-1.7,1.2-2.2,2.9-1.9c-0.8-0.5-2.5-0.2-3.5-0.6c-3.1-1.2-2.2-4-3.5-7
	C141.1,47.7,139.9,45.7,137.7,44.2L137.7,44.2z M135.4,44.4c-0.7,0.6-0.9,0.6-1,1.9l1.2-0.8L135.4,44.4z M58.1,44.6l0.2,1.2l1,0.4
	v-0.6l-0.2-0.8L58.1,44.6z M69.9,44.6C67,46,65.3,46.4,63.7,49c4.5-1.3,10.3,1,13.5,2.1c0.5-1.6,1-3.2,1.4-4.8
	C76,45.3,74.1,44.6,69.9,44.6L69.9,44.6z M119,44.6l-3.9,1.7l1.7,4.8c2.9-1.4,8.9-3.2,13.3-2.1C127.8,45.5,124.9,44.5,119,44.6
	L119,44.6z M80.3,47.5c-0.7,2.7-1.5,4-1.2,7l4.6,1.7c0.5-1.9,1.9-3,2.1-4.4C84.3,50,82.8,48.2,80.3,47.5z M112.8,47.5
	c-1.8,1.8-3.4,2.7-5,4.8c1,1.3,1.8,2.7,2.5,4.1c1.4-0.8,2.4-1.6,4.3-1.9C115,52.2,114.9,48.5,112.8,47.5z M62.7,50.8
	c-1.1,4.1-3,8.3-2.3,13.7c9.1,0.2,14.8-3.5,15.9-11.6C72.9,51,68.2,50.8,62.7,50.8z M125,50.8c-2.7,1-5.5,0.8-7.7,2.1v0.2
	c1.7,7.9,6.6,11.6,15.9,11.4c0.8-5.3-1.1-9.7-2.3-13.7H125L125,50.8z M58.3,64.5c-0.1-5.4,0.6-9.7,2.3-13.3c-5.7,1.3-8.1,6.7-7,13.5
	L58.3,64.5z M135.4,64.5l4.8,0.2c1.1-6.8-1.4-12.2-7-13.5C134.8,54.9,135.4,59,135.4,64.5z M87.5,53.7c-1.3,0.9-2.7,2.6-2.1,4.1
	c2.4,1.1,5.8,4.2,7,6.4l0.4-0.2l2.7-4.4C93.4,57.3,91.4,54.5,87.5,53.7z M105.6,53.7c-1.7,1.1-8.1,4.5-7,6.4l2.7,4.1v-0.4l7.5-6.6
	l-1.9-3.3L105.6,53.7z M94.4,55.6l2.5,2.5l2.5-2.5H94.4L94.4,55.6z M52.1,56.2c-6.6,5.3-5.6,3-8.7,12.2c2.6-1.7,4.6-2.4,8.3-3.5
	v-0.2C50.5,61.8,52.4,58,52.1,56.2L52.1,56.2z M141.4,56.2c0.7,2.6,0.3,6.5,0.8,8.9c3.8,0.1,5.8,1.8,8.1,3.3
	C148,61.1,147.8,59.4,141.4,56.2L141.4,56.2z M78.6,56.6c-1.1,1.1-4.7,7.5-2.7,9.7l4.6,1.9c0.1-3.6,1-7.4,2.3-10.2
	C81.2,57.5,80.8,56.7,78.6,56.6L78.6,56.6z M113.6,56.6l-2.7,1.5l2.5,10.2l4.8-1.9c0.1-3.5-0.8-8.3-3.1-9.5L113.6,56.6z M43,58.2
	l-0.4,1h0.8l0.4-0.4l-0.2-0.6H43L43,58.2z M150.1,58.2c0.1,1-0.4,0.9,1,1l-0.4-1H150.1z M40.3,59.1c1,4.5,0.5,7.4-4.3,8.3
	c-1,2.8-2.1,5.8-2.7,8.3h0.2c3-1.2,3.4,1.2,6,2.1c-0.7-2.7,2.8-13.4,3.9-16.2v-0.2C41.1,61.2,41.5,60.2,40.3,59.1z M153,59.1
	c-0.3,2.1-1.1,1.8-2.7,2.5c1.2,3,4.7,13.2,3.9,16.2c2.8-0.9,2.8-3,6.2-2.1c-0.1-0.5-2.9-8.1-3.1-8.3c-2.2-1-5.7-2.1-4.8-6
	C152.8,60.3,153.5,60,153,59.1z M84.2,59.3l-1.7,8.3h0.2l7.9-2.7l-2.3-2.5L84.2,59.3z M109.3,59.3l-6.2,5.6v0.2l8.1,2.5v-1.5
	L109.3,59.3z M96.7,61.4c-0.8,1.4-1.7,2.8-2.5,4.1c0.1,0.1,0.1,0.3,0.2,0.4c0.9,0.4,2.6,1,3.9,0.4l1.2-0.8
	C98.8,64.2,98,62.1,96.7,61.4L96.7,61.4z M73.9,62.2l-3.7,2.7l0.4,0.2l3.1,0.6C73.7,64.5,73.8,63.4,73.9,62.2L73.9,62.2z
	 M119.6,62.2c0.1,1.2,0.3,2.3,0.4,3.5l3.5-0.8L119.6,62.2z M57.9,66.3L54,66.5c0.3,3.2,1.8,4.7,2.9,6.8c1.3-0.6,2.7-0.9,4.6-1.2
	c-0.1-1.6-0.3-3.2-0.4-4.8C59.8,66.9,59.6,66.4,57.9,66.3L57.9,66.3z M134.3,66.3l-1.9,1.5c0.3,1.4-0.4,3.6,0.2,4.4
	c1.5,0.6,3,0.7,4.1,1.2c1.1-2.1,2.5-3.6,2.9-6.8H136L134.3,66.3z M65.6,66.7L63.1,68c-0.2,1.5,0.1,2.6,0.4,3.9
	c3.6,0.3,7.4,0.5,10.4,1.2c-0.3-1.2,0-4.5-0.8-5.4C71.2,66.8,68.2,66.7,65.6,66.7L65.6,66.7z M125.6,66.7l-5.4,1l-0.4,5.4
	c1.4-0.3,9.7-0.9,10.4-1.7c0.9-1.5,0.6-3-0.2-4.1C128.4,67.2,127.6,66.8,125.6,66.7L125.6,66.7z M50.9,67c-5.1,2.2-9.6,3.2-9.5,10.6
	l7.2-4.6l4.8-1.7L52.1,67H50.9L50.9,67z M141.6,67c-0.3,1.6-0.7,3.2-1,4.8c4.9,0.3,8.5,3.6,11.8,5.8C152.5,71,147.7,67.1,141.6,67
	L141.6,67z M87.1,68l-2.9,2.5l1.7,1.9h2.9c1.6-0.7,2.1-1.9,2.3-3.9L87.1,68z M104.7,68l-2.1,0.4c0.1,1,0.3,2.2,0.8,2.7l1.4,1.5
	c2.7,0.1,3.2-0.8,4.6-1.9l-0.2-0.4l-2.7-2.3L104.7,68L104.7,68z M75.7,73.4c2.5,0,4-1.2,4.3-3.3l-4.8-1.9
	C75.5,69.9,75.6,71.6,75.7,73.4z M118,73.4c0.1-1.7,0.3-3.5,0.4-5.2l-4.8,1.9C114,72.2,115.5,73.4,118,73.4L118,73.4z M95,68.4
	l0.6,1.9c1.1,0.3,1.3,0.3,2.5,0l0.6-1.9H95z M92.9,69l-0.2,1.2h0.8C93.3,69.9,93.1,69.4,92.9,69z M100.6,69
	c-0.1,0.4-0.3,0.8-0.4,1.2h0.8C100.9,69.9,100.7,69.4,100.6,69z M83,72.1l0.2,1.5l0.6-0.2C83.6,72.5,83.5,72.6,83,72.1z M92.3,72.1
	c-0.1,1.7,0.2,3.4,0.8,5c3,0.1,4.9,0.6,7.7-0.2c0.2-1.6,0.4-3.2,0.6-4.8h-1.9c0,0.8,0.2,0.7-0.6,1.2c-0.8,0.1-0.9-0.5-1.7-0.6
	c-1.4-0.2-1.7,0.7-2.9,0.6c-0.2-0.6-0.3-0.6-0.2-1.2H92.3L92.3,72.1z M110.5,72.1l-0.6,1.2l0.6,0.2V72.1z M80.9,73
	c-0.7,1-1.7,1.7-2.9,2.1l0.4,0.2l1.4,1l1.7-1L80.9,73z M112.6,73c-0.4,1.3-0.4,1.9,0.2,2.9c1.5,0.4,1.5,0,2.9-0.6V75L112.6,73z
	 M52.7,73.6c-4,2-8.4,3-11,6.4c0.6,4.5,3.1,9.9,6,12.2c6-3.2,9.6-10.4,6.2-18.6H52.7L52.7,73.6z M90.2,73.6
	c-0.7,0.9-1.1,0.9-2.5,0.8l1.7,3.7h0.8l1-0.6L90.2,73.6z M103.3,73.6c-0.1,1.8-0.8,3.3-0.4,4.4l1.4,0.2l1.7-3.7
	C104.5,74.5,104.3,74.3,103.3,73.6L103.3,73.6z M139.7,73.6c-3.4,8.3,0.2,15.4,6.2,18.6c3-2.4,5.5-7.8,6-12.4
	C148.6,77.3,145.1,73.9,139.7,73.6L139.7,73.6z M61.9,74l-3.5,0.6l-0.6,0.8c-0.1,4.6,1.8,6.3,3.1,9.3l5.4-1.5l-0.4-0.4L61.9,74z
	 M63.9,74l3.5,7.9l0.4-0.2c0.9-2.7,3.2-4.7,4.8-6.8h-0.4C70.3,73.9,66.5,74,63.9,74L63.9,74z M127.1,74l-6,0.8c1.7,2.3,3.3,4.7,5,7
	l0.4-0.2l3.3-7.7L127.1,74L127.1,74z M131.7,74c-0.8,3.6-2.9,6.5-4.1,9.5l5.4,1.2v-0.4c1.2-1.2,5.1-8,2.1-9.7L131.7,74z M85.3,74.4
	l-1.2,1c0.3,0.6,0.4,0.6,0.2,1.2c-0.6,0.7-1.6,0.2-2.3,0.8l-1,1.9L79,79l-0.8,0.8l0.4,0.4l2.9,3.1l0.6-0.6c2.3-0.7,4-2.4,5.6-3.9
	C87.1,77.1,86.5,75.4,85.3,74.4L85.3,74.4z M108.3,74.4c-0.7,1-2.7,3.5-1.9,4.6c1.5,1.8,4,2.6,5.6,4.4l0.4-0.4
	c1.3-0.6,2.4-1.9,3.1-3.1l-0.4-0.6l-0.8-0.4l-1.7,0.6c-0.9-1.9-1.9-1.4-3.1-2.7c-0.3-0.9,0.1-0.9-0.2-1.7L108.3,74.4z M76.8,76.7
	l0.4,1.2l0.8-0.6h-0.4L76.8,76.7z M116.7,76.7l-1,0.6l0.2,0.4l0.6,0.2l0.2-0.4L116.7,76.7L116.7,76.7z M34.7,77.1l-0.6,0.2l0.2,0.6
	l0.4,0.4l1.4-0.2l-0.6-0.8L34.7,77.1z M158.6,77.1l-1,1c1,0.1,1.1,0.1,1.9-0.2l0.2-0.6L158.6,77.1z M74.5,77.5l-3.1,2.1
	c-0.2,1.2-0.4,2.5-0.6,3.7h1.4c1.5,0.4,2.3-0.5,3.3-1.2l0.4-2.5C75.6,78.7,75.4,77.9,74.5,77.5L74.5,77.5z M123,83.3
	c0-1.5-0.3-3.1-1-3.9c-0.6-0.9-2-1.6-3.3-1.9l-0.8,2.9l1,2.3C120.3,83.2,120.8,83.4,123,83.3z M32.2,78.6c-0.8,3-2.1,5.7-2.5,8.3
	c5,4,0.1,6.5-1.2,9.3c1.4-1,2.2-1.2,3.7-0.2c1.2-5,3.6-11.5,6.2-15.5L38,80C35.3,80.6,34,79.6,32.2,78.6L32.2,78.6z M161.1,78.6
	l-0.8,1.5c-1.7,0.1-4.1-0.2-5,0.4c2.6,4.3,4.8,10.4,6.2,15.5c1.2-0.7,3.7-0.3,3.7-0.4c-4.2-1.5-3.4-6-1.2-8.9
	c-0.1-0.7-2.3-7.5-2.7-8.1H161.1L161.1,78.6z M96.7,79.4l-1,0.4l0.2,0.4c1.2,0.3,1.2,0.3,2.3-0.2C97.7,79.7,97.3,79.5,96.7,79.4
	L96.7,79.4z M90.9,80.2c-0.5,0.9-0.4,1.9-0.2,3.1l2.7-1C92.7,81.1,92.6,80.3,90.9,80.2z M101.6,80.2l-1.2,2.3l2.7,0.8
	c0.2-1.2,0.2-2.2-0.2-3.1L101.6,80.2L101.6,80.2z M39.9,81.7c-3.4,4.8-1.6,11.7,2.5,14.7l3.7-2.9c-1.5-2.2-3.2-4.3-4.3-6.8
	L39.9,81.7z M153.6,81.7c-1.6,4.8-4.2,8.1-6,12l3.7,2.7C154.7,94,158.3,85.4,153.6,81.7L153.6,81.7z M77.4,82.1
	c-0.3,1.2-0.8,1.5-1.4,2.3c2.1,0.7,2.7,2.1,4.3,1v-0.2C79.8,84,78.4,82.8,77.4,82.1z M116.1,82.1c-0.9,1.1-2.3,1.8-2.7,3.3l0.8,0.8
	l3.5-1.9l-0.4-0.6C116.6,83.3,116.6,82.7,116.1,82.1L116.1,82.1z M57.5,82.5l-1.7,4.8l3.3-1.9L57.5,82.5z M86.9,82.5
	c-0.8,0.6-1.2,0.7-1.7,1.7l1.7-0.2C87.1,83.1,87.5,82.9,86.9,82.5L86.9,82.5z M106.4,82.5c0.1,0.5,0.3,1,0.4,1.5l1.7,0.2
	C108,83.1,107.5,82.8,106.4,82.5z M136,82.5l-1.2,3.3l3.1,1.5L136,82.5z M96,83.9c-5.8,2.8-10.2,2.9-12.4,9.3
	c-3.1,9,5.7,20.1,14.1,18.4C115.1,108.4,114.5,84,96,83.9L96,83.9z M70.6,85.2c0.4,0.6,0.4,0.6,1.2,0.8l-0.2-0.8H70.6L70.6,85.2z
	 M122.1,85.2l-0.2,0.8c0.8-0.2,0.8-0.3,1.2-0.8H122.1z M66,85.4l-3.9,1l3.3,3.9h0.4c1.1-1.4,1.8-2.5,1.4-5L66,85.4L66,85.4z
	 M126.5,85.4c-0.4,2.3,0.2,3.9,1.7,5h0.4l3.1-3.9L126.5,85.4z M73.9,85.6L73.5,87l1,1.2c-1,1.5-1.2,2-1.4,4.1l-1.7,0.6
	c-0.1,0.4-0.1,0.8-0.2,1.2c1.5,0.3,3.3,0.9,5,0.4c0.5-2.3,1.7-4.3,2.1-7L73.9,85.6z M119.6,85.6l-4.1,2.1c0.3,2.9,1.3,5.1,2.3,7.3
	l4.8-0.6v-0.6c-0.1-0.3-0.1-0.6-0.2-0.8l-1.9-0.6c0.3-2.3-0.3-2.5-1.2-3.9c0.5-0.8,0.8-0.8,1-1.9L119.6,85.6z M82.6,86.4l-0.8,0.4
	v1.5l1.4,1.5l1.2-1l0.6-1.5L82.6,86.4z M110.5,86.4l-1.9,0.8l1.7,2.5l1.7-1.5V88c-0.1-0.5-0.1-1-0.2-1.5L110.5,86.4z M69.5,87
	l-1.2,3.5h0.8c2.1-0.5,2.2-1.8,1-3.3L69.5,87z M124,87l-1.2,1c-0.1,2.2,0.7,2.5,2.7,2.5L124,87z M60,87.3c-3.1,1.9-5.8,2.7-7.9,5.6
	c0.2,2.2,1.4,2.5,2.5,3.7l8.9-5.2L60,87.3z M133.3,87.3l-3.1,4.4c3.1,0.8,6.6,3,8.7,5l0.8-0.8c1.2-0.5,1.8-1.4,1.9-3.1
	C139,90.6,137,88.3,133.3,87.3L133.3,87.3z M36.2,90.6c-1.8,5.3-3,6-1,11.4c0.5,1.3,0.4,2.4,1.4,3.1c0.6-3.6,2.6-5,4.3-7.3l-3.3-3.7
	C37,92.9,37.1,91.4,36.2,90.6z M157.1,90.6c-0.6,3.6-2.6,5-4.3,7.3l2.1,2.1c0.6,1.4,1.6,3.7,2.5,5.2h0.2c1.8-5.3,3-6,1-11.4
	C158.1,92.4,158.2,91.3,157.1,90.6L157.1,90.6z M80.1,91c-0.5,0.8-0.9,1.4-0.6,2.5l1-0.8v-0.2L80.1,91z M113.4,91l-0.2,1.7l0.8,0.8
	l0.4-0.2v-0.2C114.3,92,114.1,91.5,113.4,91L113.4,91z M68.3,92.4c0.3,0.4,0.5,0.5,0.8,0.8l0.4-0.8H68.3L68.3,92.4z M124.2,92.4
	c0.4,1-0.1,0.4,0.8,0.6l0.4-0.4v-0.2H124.2z M63.5,93.5l-7,4.4l0.2,0.4l7,3.9C63.6,99.3,63.6,96.4,63.5,93.5L63.5,93.5z M130,93.5
	v8.7c2.4-1,5.6-2.5,7.2-4.4C135.5,96,132.5,94.5,130,93.5L130,93.5z M49.6,94.3c-2.5,1.1-3.7,2.3-5.8,3.3c0.3,0.4,0,0.1,0.4,0.4
	c1.4,1.8,3.1,3,6,3.3c0.8-1.6,1.9-2.3,2.9-3.5C52.4,96.9,50.8,94.7,49.6,94.3L49.6,94.3z M67,94.3c-1.2,2.5-2,4.8,0.2,7
	c1.8-0.9,2.4-1.5,3.1-3.5C69.7,95.9,69,94.9,67,94.3L67,94.3z M126.3,94.3c-1.5,1.2-2.1,1.5-2.9,3.5c0.7,2,1.3,2.7,3.1,3.5
	C128.2,99.6,128.7,95.7,126.3,94.3L126.3,94.3z M143.5,94.3c-2.2,4-4,3.1,0.2,7c3-0.5,4.5-1.8,6.2-3.5v-0.2
	C147.5,96.5,146.9,94.8,143.5,94.3L143.5,94.3z M80.5,96.4l-2.1,0.8c-0.1,0.2-0.1,0.4-0.2,0.6l0.6,1l2.3,0.4
	C81.3,98,81.6,96.9,80.5,96.4z M112.6,96.4v2.9l2.7-0.8c0.1-0.2,0.1-0.4,0.2-0.6C114.9,96.8,114.1,96.5,112.6,96.4z M72,96.6v2.5
	c1.5-0.1,3.5-0.2,4.1-1.2L75.9,97L72,96.6z M120.9,96.6c-1.3,0.5-2.6,0.1-3.3,1.2l0.2,0.8l3.9,0.4v-2.5L120.9,96.6L120.9,96.6z
	 M30.2,97.2L30,97.8l0.2,0.6c0.8-0.2,0.6-0.2,1-0.6l-0.4-0.6C30.8,97.2,30.2,97.2,30.2,97.2z M162.9,97.2l-0.4,0.6
	c0.4,0.5,0.3,0.4,1,0.6l0.2-0.6C163.4,97.3,163.6,97.5,162.9,97.2L162.9,97.2z M54.6,99.1c-1.1,1.3-2.3,1.5-2.5,3.9
	c2.6,2.1,4.6,3.9,8.1,5.4l3.3-4.4C60,103.1,57.5,100.7,54.6,99.1z M138.9,99.1c-2.5,2.2-5.9,3.2-8.7,5.2l3.1,4.1
	c3.4-0.9,6.5-3,8.3-5.6C141.4,100.7,140.2,100,138.9,99.1z M42.2,99.3c-3.2,4-6,9.3-2.3,14.7l0.4-0.2c0.6-5.1,4-8.1,5.8-11.8
	L42.2,99.3z M151.1,99.3l-3.5,2.9c2.5,3.6,4.5,7.6,6,11.8l0.8-0.6C156.2,108.4,156,101.5,151.1,99.3L151.1,99.3z M28.5,99.5
	c0.8,1.7,2.9,2.1,3.3,4.4c0.5,2.8-2.1,4-1.9,5.8c0.1,0.6,2.1,6.9,2.5,7.5c2.4-2.2,4-0.7,6-1.9c-2.6-4.3-4.8-10.4-6.2-15.5l-2.3,0.8
	L28.5,99.5z M165,99.5l-1.2,1c-1.2-0.1-1.5-0.4-2.3-0.8c-0.7,2.7-6.2,15.2-5.8,16c2.5-0.5,4.1,0,5.6,1.5l0.4-0.2
	c0.1-3.7,1.8-5.1,2.3-8.1C158.4,104.3,165.2,101.3,165,99.5z M73.5,100.7l-2.3,0.6v0.6c0.1,0.3,0.1,0.6,0.2,0.8
	c0.8,0.2,1.2,0.2,1.7,0.8c0.5,1.7,0.5,2.3,1.4,3.7c-0.5,0.8-0.8,0.8-1,1.9l0.4,0.8h0.2l4.1-2.3c-0.4-2.8-1.3-4.9-2.3-7L73.5,100.7
	L73.5,100.7z M117.8,100.7c-0.8,2-2.6,4.9-2.1,7.5l4.1,1.9l0.2-0.2c0.1-1.5-0.2-1.4-0.8-2.5c1-1.5,1.2-2,1.4-4.1l1.7-0.6
	c0.1-0.4,0.1-0.8,0.2-1.2L117.8,100.7z M79.5,102.2c-0.2,1.1,0,1.8,0.8,2.5l0.2-1.7L79.5,102.2z M114.1,102.2l-0.8,1l0.2,1.5
	l0.6-0.4C114.3,103.3,114.6,102.9,114.1,102.2L114.1,102.2z M69.1,102.4l-0.8,0.4v0.4h1.2L69.1,102.4z M124.4,102.4l-0.2,0.8h1.2
	v-0.4L124.4,102.4z M47.6,103.4c-2.4,3.5-5.2,7.2-5.8,12.4c2.7,2,7.9,7.1,12.4,6C55.9,113.4,55.2,106.1,47.6,103.4z M145.7,103.4
	c-5.5,4.7-10,8.9-6,18.6c4.6-0.1,10.1-3.6,12.2-6.4C151.4,111.6,148.9,104.9,145.7,103.4z M68.3,105.1l1.2,3.5
	c1.5-0.7,1.8-1.9,0.8-3.3L68.3,105.1z M123.8,105.1c-1.3,1-1.2,2.1-0.2,3.3l0.6,0.2v-0.4l1.2-3.1H123.8z M65.2,105.3l-3.1,3.9l5.2,1
	C67.6,108,67.1,105.8,65.2,105.3L65.2,105.3z M127.9,105.3c-1.1,1.4-1.8,2.5-1.4,5h1l4.1-1l-0.4-0.4
	C130.7,107.5,129.4,105.7,127.9,105.3L127.9,105.3z M83.2,105.9l-1.4,1.7c0.1,0.5,0.1,1,0.2,1.5l0.6,0.2l2.5-0.8l-0.2-0.6
	L83.2,105.9z M110.3,105.9l-1.7,2.5c1.3,0.3,1.8,1,2.9,0.4c0.4-0.4,0.3-0.4,0.4-1.2L110.3,105.9z M55.8,108.4l1.9,4.8v-0.4l1.4-2.5
	L55.8,108.4z M137.7,108.4l-3.1,1.9l0.4,0.4l1,2.5l0.4-0.2C136.8,111.4,137.2,109.9,137.7,108.4L137.7,108.4z M79.3,109.4l-3.3,1.9
	l0.4,0.6c0.7,0.4,0.8,0.7,1,1.7c1-0.7,2.4-1.9,2.9-3.1L79.3,109.4z M114.3,109.4l-0.8,1c0.5,1.2,1.9,2.4,2.9,3.1
	c0.3-1.2,0.8-1.5,1.4-2.3h-0.4L114.3,109.4z M71.2,109.6l-0.6,0.8h0.8l0.4-0.8H71.2L71.2,109.6z M121.9,109.6v0.6l0.4,0.2h0.8
	l-0.6-0.8C122.5,109.6,121.9,109.6,121.9,109.6z M60.8,110.9c-0.7,1.7-5.4,8.2-2.1,10.2l3.3,0.6c0.8-3.6,2.9-6.5,4.1-9.5L60.8,110.9
	z M132.1,110.9l-4.6,1.5c1.6,2.7,3.3,5.9,4.1,9.3c1.5-0.3,3.2-0.1,3.9-1.2c2.1-2.7-1.9-7.7-2.7-9.5L132.1,110.9L132.1,110.9z
	 M85.3,111.5c0.4,1,0.9,1.3,2.1,1.7c-0.1-0.3-0.1-0.6-0.2-0.8l-0.4-0.6L85.3,111.5z M108.3,111.5l-1.4,0.2c-0.1,0.5-0.3,1-0.4,1.5
	h0.2C107.6,112.8,108.3,112.3,108.3,111.5L108.3,111.5z M72.2,112.1l-1.4,0.2c0.1,1.5,0.3,3.1,1,3.9c0.6,0.9,2,1.6,3.3,1.9l0.8-2.9
	l-1-2.3C73.9,112.6,73.7,112.2,72.2,112.1z M123,112.3c-2.6-0.2-3.2,0.1-4.8,1.2l-0.4,2.5l0.8,2.1c1.6-0.3,2.7-1.2,3.7-2.1
	C122.5,114.8,122.7,113.6,123,112.3L123,112.3z M81.5,112.3c-1.1,1.2-2.2,2.3-3.3,3.5l0.4,0.6l0.8,0.4l1.7-0.6
	c0.9,1.9,1.7,1.6,3.3,2.7c-0.1,1.2-0.3,0.8,0,1.7l0.8,0.6l0.6-0.4l1.9-4.1C85.7,115.8,83.5,113.7,81.5,112.3L81.5,112.3z
	 M90.6,112.3c-0.2,1.2-0.2,2.2,0.2,3.1c0.9,0,1.1-0.1,1.7-0.4l0.8-1.9L90.6,112.3z M102.9,112.3l-2.1,0.8l-0.4,0.2l1.2,2.1
	c0.9,0,1.1-0.1,1.7-0.4C103.1,114.1,103,113.2,102.9,112.3L102.9,112.3z M112,112.3l-6,4.4c0.5,1.9,1.3,3.2,2.3,4.6l0.6-0.6l0.8-0.4
	l-0.4-1.2c1.6-1,2.3-1.4,3.5-2.7l1.9,0.4l0.8-0.8C114.6,114.4,113.4,113.2,112,112.3L112,112.3z M67.4,113.8l-3.5,7.9l8.7-0.8
	l-0.8-0.8L67.4,113.8z M126.1,113.8l-5,7h0.4l8.3,0.8C128.6,119.2,128,115.6,126.1,113.8L126.1,113.8z M96.7,115l-1,0.6l0.2,0.4
	c1.1,0.1,1.6,0.2,2.3-0.4L96.7,115z M34.7,117.3l-0.6,1l0.8,0.2l1.2-1L34.7,117.3z M158.2,117.3l-0.6,0.2l0.6,0.8l0.6,0.2l0.8-0.2
	l-0.2-0.6l-0.6-0.4H158.2z M89.4,117.5l-1.7,3.7c1.4-0.1,1.7,0.1,2.7,0.8c0.1-1.8,0.8-3.3,0.4-4.4l-0.4-0.2L89.4,117.5L89.4,117.5z
	 M103.3,117.5l-0.8,0.6l0.8,3.9c1-0.7,1.2-1,2.7-0.8C105.4,120.1,104.8,117.8,103.3,117.5z M77.2,117.7l-0.4,1.2l1.2-0.6l-0.2-0.4
	L77.2,117.7z M116.3,117.7l-0.6,0.6h0.4l0.8,0.6L116.3,117.7z M38.9,117.9l-3.5,2.7l-2.1-0.6c0.1,0.5,2.9,8.1,3.1,8.3
	c2.2,1,5.7,2.1,4.8,6c-0.2,1-0.9,1.3-0.4,2.3c0.3-2,1.1-1.8,2.7-2.5C42.6,131.9,39.4,118.2,38.9,117.9L38.9,117.9z M154.2,117.9
	c0.9,3.3-2.9,12.9-3.9,16.4c1.8,0,2.5,0.6,2.7,2.3l0.4-0.4c-1.9-4.1,0.3-7.1,4.3-7.9c1-2.9,2.1-5.8,2.7-8.3h-0.2
	C157.2,121.2,156.8,118.8,154.2,117.9L154.2,117.9z M41.3,118.1c-0.1,6.5,4.6,10.4,10.8,10.6l1.2-4.6
	C48.4,122.6,45.1,120.6,41.3,118.1L41.3,118.1z M92.3,123.5H94c0.2-0.9,0.3-0.9,0.8-1.5c2.1,0.6,2.7,0,4.1,0.2
	c0.7,0.4,0.6,0.3,0.8,1.2h1.7c0.1-1.7-0.2-3.4-0.8-5c-3-0.1-4.9-0.6-7.7,0.2C92.7,120.3,92.5,121.9,92.3,123.5L92.3,123.5z
	 M152.2,118.1c-2.9,3-7.3,4.5-11.8,6v0.2c0.7,1.4,0.5,4,2.3,4.4C146.4,127.7,154.5,123.8,152.2,118.1L152.2,118.1z M79.7,119.4
	l-1.7,1l0.4,0.2l2.7,2.1l0.4-1.2C81.4,120,80.9,119.7,79.7,119.4L79.7,119.4z M113.6,119.4c-0.5,0.3-1,0.7-1.4,1l0.4,2.3l3.1-2.3
	L113.6,119.4z M83.2,122.1l-0.2,1.5l0.8-0.8L83.2,122.1z M110.3,122.1l-0.4,0.2c0.2,0.8,0.3,0.8,0.8,1.2L110.3,122.1z M56.9,122.3
	c0,0-3.9,5.9-2.9,6.8h5.4l1.9-1.2c-0.3-1.4,0.4-3.6-0.2-4.4C59.5,122.9,58.1,122.9,56.9,122.3L56.9,122.3z M75.7,122.3
	c-0.1,1.7-0.3,3.5-0.4,5.2l4.8-1.9c-0.3-1.7-1.3-2.6-2.7-3.1L75.7,122.3z M118,122.3c-2.5,0-4,1.2-4.3,3.3l4.8,1.9
	C118.3,125.7,118.1,124,118,122.3L118,122.3z M136.6,122.3c-1.1,0.9-2.6,0.9-4.3,1.2c0.1,1.6,0.3,3.2,0.4,4.8c1.8,0.6,4.2,0.9,7,0.8
	v-0.6C138.9,125.8,138.4,124,136.6,122.3L136.6,122.3z M73.5,122.5c-1.8,0.9-9,0.5-9.9,1.7c-0.9,1.5-0.6,3,0.2,4.1
	c3.2,0.5,6.5,0.4,9.7-0.4C73.5,126.2,73.9,122.9,73.5,122.5L73.5,122.5z M119.8,122.5c0.3,1.2,0,4.5,0.8,5.4
	c2.7,1.5,7.7,1.2,9.9-0.2l0.2-0.8l-0.6-3.1C126.7,123.1,122.8,123.2,119.8,122.5L119.8,122.5z M86.9,123.1c-1.2,0.6-1.7,1.1-2.7,1.9
	l0.2,0.4l2.7,2.3l3.9-0.4c-0.1-1-0.3-2.2-0.8-2.7l-1.4-1.5L86.9,123.1L86.9,123.1z M104.9,123.1l-1.9,1.5c-0.1,0.9-0.3,1.8-0.4,2.7
	c1.3,0.1,2.7,0.7,3.9,0.2l2.9-2.3l-1.7-1.9L104.9,123.1z M96.4,125c-0.8,0.7-1,1-1.4,2.1v0.2h3.7V127l-0.6-1.7L96.4,125z
	 M92.7,125.4l0.2,1.2l0.6-1L92.7,125.4z M100.2,125.4l0.6,1.2l0.2-1.2H100.2z M43.4,127.2c2.3,7.3,2.4,9,8.9,12.2
	c-0.7-2.4-1.5-5.7-0.6-8.7l-0.2-0.2C47.7,130.5,45.7,128.8,43.4,127.2z M150.1,127.2c-2.1,2.2-4.7,2.5-8.1,3.5
	c0.9,3,0.1,6.3-0.6,8.7c4.8-2.3,6.9-4.4,8.3-10.4L150.1,127.2z M80.1,127.5c-1.1,1-2.9,1.5-4.6,1.9c-0.1,3.5,0.8,8.3,3.1,9.5
	c1.7,0.7,2.9-0.7,4.1-1.2C81.9,134.2,81,130.8,80.1,127.5z M113.2,127.5c-0.1,3.6-1,7.5-2.3,10.2c1.7,0.6,2.4,1.6,4.6,1.2
	c0.8-1.3,4.2-7.4,2.3-9.5L113.2,127.5z M82.6,128.1l1.7,8.3l0.6-0.2l5.8-5.4v-0.2L82.6,128.1z M110.7,128.1l-7.7,2.7l2.5,2.7
	l3.9,2.9C109.9,134.5,112.1,129.6,110.7,128.1L110.7,128.1z M95.4,129.1l-1.2,1c0.1,0.1,0.3,0.3,0.4,0.4c0.4,1.4,1.2,2.7,2.3,3.7
	l0.4-0.2c0.8-1.3,1.5-2.6,2.3-3.9C98.6,129.2,97.5,129,95.4,129.1z M72.8,129.9l-2.7,0.6l0.4,0.2l3.5,2.7l-0.4-3.5H72.8L72.8,129.9z
	 M120.1,129.9c-0.1,1.2-0.3,2.3-0.4,3.5l3.9-2.7l-0.4-0.2L120.1,129.9z M58.3,131.2l-4.8-0.2c-1.1,6.9,1.4,12.1,7,13.5
	C59,140.7,58.3,136.7,58.3,131.2L58.3,131.2z M63.3,131l-2.9,0.2c-0.8,5.3,1.1,9.7,2.3,13.7c4.8,0.1,11.4,0.2,13.7-2.3
	C75,136.3,70.7,131.1,63.3,131L63.3,131z M128.8,131c-5.8,3.2-10.2,4-11.4,11.8l0.4,0.4c3.9,0.8,7.8,1.6,13.3,1.7
	c1.1-4.1,3-8.3,2.3-13.7L128.8,131z M135.4,131.2c0.1,5.4-0.6,9.7-2.3,13.3c5.7-1.4,8.1-6.6,7-13.5L135.4,131.2z M92.5,131.4
	c-1.7,3.1-5.3,4.5-7.5,7c0.7,1.6,1.2,2.5,2.5,3.5c3.8-0.8,5.8-3.6,8.1-6L92.5,131.4z M101,131.4l-2.9,4.4c1.1,2,5.3,6.7,8.1,6
	c1.6-0.5,1.9-1.9,2.5-3.3C106.1,136.1,103.6,133.7,101,131.4L101,131.4z M42.6,136.4c0.3,0.9,0.1,0.7,1,1l0.2-0.6l-0.2-0.4H42.6z
	 M150.1,136.4v1c0.9-0.3,0.7-0.1,1-1H150.1z M45.5,137.4l-0.2,1c-0.9,0.7-1.2,1.1-2.7,0.8l0.2,0.4c6.3-0.1,5,2.9,6.8,7.3
	c3,1,4.2,3,6.4,4.6c0.1-3.8,2.7-2.8,3.7-5.4C55.1,145.4,49.8,139.4,45.5,137.4L45.5,137.4z M147.8,137.4c-1.7,1.9-11.2,8.3-13.9,8.7
	c1,2.6,3.6,1.5,3.7,5.4c2.3-1.5,4.3-3.4,6.8-5c-0.2-7.9,2.9-4.8,6.6-7.3c-1,0.2-1.4,0.1-2.3-0.2C148.5,138.5,148.2,138,147.8,137.4
	L147.8,137.4z M96.7,137.6l-2.3,2.5h5L96.7,137.6z M83.2,139.3c-1,1-2.4,1.6-4.1,1.9c-0.3,3.1,0.5,4.4,1.2,7
	c2.8-0.7,4.1-2.7,5.6-4.8C85.1,142.3,84.2,140.3,83.2,139.3L83.2,139.3z M110.3,139.3c-0.7,1.6-2.1,3.4-2.3,4.6
	c1.4,1.9,2.8,3.7,5.4,4.4c0.7-2.7,1.5-4,1.2-7C112.8,140.9,111.6,140.1,110.3,139.3L110.3,139.3z M96,142l-5.6,1.5l-3.5,2.7
	c0.8,2,7.9,10,10.1,9.7c2.5-0.3,8.7-7.4,9.7-9.7h-0.4C104.2,143.5,100.7,142,96,142L96,142z M76.8,144.7c-2.6,1.9-8.9,2.6-13,2.1
	c3.4,5.5,8.9,4.8,14.9,2.7C78.5,148,77.7,145.4,76.8,144.7L76.8,144.7z M116.5,144.7c-0.5,1.6-1,3.2-1.4,4.8
	c6.1,2.1,11.5,2.7,14.9-2.7C125,147.4,120.2,145.9,116.5,144.7L116.5,144.7z M85.3,147.3l-3.9,2.9c1.5,3.2,8.4,10.9,13.5,6.4
	C90.4,155.1,88,150.6,85.3,147.3L85.3,147.3z M108.3,147.3c-1.3,3.5-5.8,8-9.3,9.3l0.2,0.4c6.8,1.2,10.9-1.9,13.3-6.8L108.3,147.3z
	 M61.9,148c-0.4,2.7-0.9,4.3-3.3,5.2l0.4,0.6c2.9,0.9,4.2,2.7,6.2,4.4c3.1-0.4,6.3-1.4,7.9,1.7c0.6,1.1,0.1,1.8,1.2,2.5
	c-0.8-1.7-0.4-2.3,0.6-3.5c-2.8-3-6.3-5.1-9.7-7.5L61.9,148z M131.4,148c-2.7,4.6-9,6.9-12.6,10.8c1,1.3,1.4,1.8,0.6,3.5h0.6
	c0.7-5.3,4.3-4.6,8.7-4.1c1.7-2.2,3.9-3.3,6.4-4.8l-2.3-1.5C132.1,150.6,132.6,148.9,131.4,148L131.4,148z M59.2,149.4l-1,0.8v1
	l1-0.6V149.4L59.2,149.4z M134.3,149.4l0.2,1.5l1,0.4C135.5,149.8,135.3,149.9,134.3,149.4L134.3,149.4z M79.3,151.1
	c-1.9,1.5-5.1,2.3-8.3,1.9l6.2,5.2l8.1-0.6h-0.4C84.4,156.9,79.4,151.2,79.3,151.1L79.3,151.1z M114.1,151.1
	c-1.2,2.7-2.9,5.3-5.6,6.4v0.2l8.1,0.2l6.2-5C119,153.5,116.7,152,114.1,151.1L114.1,151.1z M95.2,158.7c-2.5,1.4-12.3,1.3-16.6,1.2
	c0.6,2-1.1,3.1-0.8,3.5c3.4-2.7,6.9-1.9,8.9,1.7c3.1-0.1,5.6-0.1,8.7,0C93.5,162.1,96.2,160.7,95.2,158.7L95.2,158.7z M98.3,158.7
	c-0.3,2.8,1.7,3.7,0,6.4c2.5,0,7.3,0.4,9.1-0.4c2-6,7.4-1,8.9-1.7c-1.6-0.5-1.8-1.5-1.2-3.1C110,160.1,102,160.2,98.3,158.7
	L98.3,158.7z M75.9,160.4v1h1v-0.6l-0.2-0.4H75.9L75.9,160.4z M116.9,160.4l-0.2,1h0.8l0.4-0.6l-0.2-0.4H116.9L116.9,160.4z
	 M96.7,161.9c-0.3,1-0.5,1.1,0.2,1.9l0.4-0.2l0.2-0.6l-0.6-1L96.7,161.9L96.7,161.9z"/>
</svg>
